<svg xmlns="http://www.w3.org/2000/svg" xmlns:xlink="http://www.w3.org/1999/xlink" width="350" zoomAndPan="magnify" viewBox="0 0 262.5 262.500001" height="350" preserveAspectRatio="xMidYMid meet" version="1.0"><defs><clipPath id="699cc74c8b"><path d="M 0 0 L 262 0 L 262 262 L 0 262 Z M 0 0 " clip-rule="nonzero"/></clipPath><clipPath id="efba2e7f37"><path d="M 32 60 L 207 60 L 207 225 L 32 225 Z M 32 60 " clip-rule="nonzero"/></clipPath><clipPath id="e481b28372"><path d="M 218.136719 216.601562 L 45.546875 238.699219 L 23.542969 66.851562 L 196.132812 44.753906 Z M 218.136719 216.601562 " clip-rule="nonzero"/></clipPath><clipPath id="14e68ddaf1"><path d="M 218.136719 216.601562 L 45.546875 238.699219 L 23.542969 66.851562 L 196.132812 44.753906 Z M 218.136719 216.601562 " clip-rule="nonzero"/></clipPath><clipPath id="ce698379d2"><path d="M 141 154 L 175 154 L 175 188 L 141 188 Z M 141 154 " clip-rule="nonzero"/></clipPath><clipPath id="cd50e983c3"><path d="M 218.136719 216.601562 L 45.546875 238.699219 L 23.542969 66.851562 L 196.132812 44.753906 Z M 218.136719 216.601562 " clip-rule="nonzero"/></clipPath><clipPath id="095447e144"><path d="M 218.136719 216.601562 L 45.546875 238.699219 L 23.542969 66.851562 L 196.132812 44.753906 Z M 218.136719 216.601562 " clip-rule="nonzero"/></clipPath><clipPath id="2820982b09"><path d="M 97 173 L 131 173 L 131 207 L 97 207 Z M 97 173 " clip-rule="nonzero"/></clipPath><clipPath id="b208def42e"><path d="M 218.136719 216.601562 L 45.546875 238.699219 L 23.542969 66.851562 L 196.132812 44.753906 Z M 218.136719 216.601562 " clip-rule="nonzero"/></clipPath><clipPath id="4ad8f1f44d"><path d="M 218.136719 216.601562 L 45.546875 238.699219 L 23.542969 66.851562 L 196.132812 44.753906 Z M 218.136719 216.601562 " clip-rule="nonzero"/></clipPath><clipPath id="6f3919c5c4"><path d="M 56 143 L 90 143 L 90 177 L 56 177 Z M 56 143 " clip-rule="nonzero"/></clipPath><clipPath id="ecc461d38d"><path d="M 218.136719 216.601562 L 45.546875 238.699219 L 23.542969 66.851562 L 196.132812 44.753906 Z M 218.136719 216.601562 " clip-rule="nonzero"/></clipPath><clipPath id="59a8888384"><path d="M 218.136719 216.601562 L 45.546875 238.699219 L 23.542969 66.851562 L 196.132812 44.753906 Z M 218.136719 216.601562 " clip-rule="nonzero"/></clipPath><clipPath id="e7c30df108"><path d="M 50 94 L 84 94 L 84 128 L 50 128 Z M 50 94 " clip-rule="nonzero"/></clipPath><clipPath id="12866e33a7"><path d="M 218.136719 216.601562 L 45.546875 238.699219 L 23.542969 66.851562 L 196.132812 44.753906 Z M 218.136719 216.601562 " clip-rule="nonzero"/></clipPath><clipPath id="ba6f6cef52"><path d="M 218.136719 216.601562 L 45.546875 238.699219 L 23.542969 66.851562 L 196.132812 44.753906 Z M 218.136719 216.601562 " clip-rule="nonzero"/></clipPath><clipPath id="41d193a36d"><path d="M 151 58 L 166 58 L 166 75 L 151 75 Z M 151 58 " clip-rule="nonzero"/></clipPath><clipPath id="79ca9dc84d"><path d="M 150.359375 55.582031 L 169.109375 55.726562 L 168.929688 78.976562 L 150.179688 78.832031 Z M 150.359375 55.582031 " clip-rule="nonzero"/></clipPath><clipPath id="75f55c7a4f"><path d="M 151.351562 -71.40625 L 434.839844 -69.199219 L 432.917969 177.542969 L 149.429688 175.335938 Z M 151.351562 -71.40625 " clip-rule="nonzero"/></clipPath><clipPath id="a56da2250b"><path d="M 151.351562 -71.40625 L 434.839844 -69.199219 L 432.917969 177.542969 L 149.429688 175.335938 Z M 151.351562 -71.40625 " clip-rule="nonzero"/></clipPath><clipPath id="4d0b1ddf2f"><path d="M 35 195 L 48 195 L 48 211 L 35 211 Z M 35 195 " clip-rule="nonzero"/></clipPath><clipPath id="f4001bf3ea"><path d="M 34.25 192.988281 L 51.5 193.125 L 51.335938 214.121094 L 34.085938 213.988281 Z M 34.25 192.988281 " clip-rule="nonzero"/></clipPath><clipPath id="edff60a0ae"><path d="M 35.171875 74.710938 L 299.164062 76.765625 L 297.378906 306.257812 L 33.386719 304.203125 Z M 35.171875 74.710938 " clip-rule="nonzero"/></clipPath><clipPath id="c6835f5afa"><path d="M 35.171875 74.710938 L 299.164062 76.765625 L 297.378906 306.257812 L 33.386719 304.203125 Z M 35.171875 74.710938 " clip-rule="nonzero"/></clipPath><clipPath id="db9cc11fcb"><path d="M 174 45 L 193 45 L 193 67 L 174 67 Z M 174 45 " clip-rule="nonzero"/></clipPath><clipPath id="c3a9da6b03"><path d="M 172.710938 42.066406 L 197.457031 42.257812 L 197.21875 73.007812 L 172.46875 72.816406 Z M 172.710938 42.066406 " clip-rule="nonzero"/></clipPath><clipPath id="0f0f3d9953"><path d="M 174.035156 -128.214844 L 554.273438 -125.253906 L 551.699219 205.484375 L 171.460938 202.523438 Z M 174.035156 -128.214844 " clip-rule="nonzero"/></clipPath><clipPath id="70b1f04613"><path d="M 174.035156 -128.214844 L 554.273438 -125.253906 L 551.699219 205.484375 L 171.460938 202.523438 Z M 174.035156 -128.214844 " clip-rule="nonzero"/></clipPath><clipPath id="6500399a73"><path d="M 142 32 L 238 32 L 238 123 L 142 123 Z M 142 32 " clip-rule="nonzero"/></clipPath><clipPath id="7997789591"><path d="M 123.71875 163.925781 L 101.765625 140.300781 L 227.589844 23.398438 L 249.542969 47.023438 Z M 123.71875 163.925781 " clip-rule="nonzero"/></clipPath><clipPath id="395f820425"><path d="M 101.996094 140.546875 L 123.949219 164.175781 L 249.773438 47.273438 L 227.824219 23.644531 Z M 101.996094 140.546875 " clip-rule="nonzero"/></clipPath><clipPath id="57a94311e9"><path d="M 152 86 L 181 86 L 181 113 L 152 113 Z M 152 86 " clip-rule="nonzero"/></clipPath><clipPath id="910468b6af"><path d="M 123.71875 163.925781 L 101.765625 140.300781 L 227.589844 23.398438 L 249.542969 47.023438 Z M 123.71875 163.925781 " clip-rule="nonzero"/></clipPath><clipPath id="172287ed6e"><path d="M 101.996094 140.546875 L 123.949219 164.175781 L 249.773438 47.273438 L 227.824219 23.644531 Z M 101.996094 140.546875 " clip-rule="nonzero"/></clipPath><clipPath id="e0ac345574"><path d="M 104 112 L 153 112 L 153 151 L 104 151 Z M 104 112 " clip-rule="nonzero"/></clipPath><clipPath id="f6c929bb44"><path d="M 123.71875 163.925781 L 101.765625 140.300781 L 227.589844 23.398438 L 249.542969 47.023438 Z M 123.71875 163.925781 " clip-rule="nonzero"/></clipPath><clipPath id="94abad06da"><path d="M 101.996094 140.546875 L 123.949219 164.175781 L 249.773438 47.273438 L 227.824219 23.644531 Z M 101.996094 140.546875 " clip-rule="nonzero"/></clipPath><clipPath id="31aaa08a7f"><path d="M 49.867188 93.683594 L 85.117188 93.683594 L 85.117188 128.933594 L 49.867188 128.933594 Z M 49.867188 93.683594 " clip-rule="nonzero"/></clipPath><clipPath id="7b2055d99a"><path d="M 54.480469 141.761719 L 89.730469 141.761719 L 89.730469 177.011719 L 54.480469 177.011719 Z M 54.480469 141.761719 " clip-rule="nonzero"/></clipPath><clipPath id="e074b88cc0"><path d="M 95.878906 172.6875 L 131.128906 172.6875 L 131.128906 207.9375 L 95.878906 207.9375 Z M 95.878906 172.6875 " clip-rule="nonzero"/></clipPath><clipPath id="c780c46caf"><path d="M 141.167969 151.972656 L 177.917969 151.972656 L 177.917969 188.722656 L 141.167969 188.722656 Z M 141.167969 151.972656 " clip-rule="nonzero"/></clipPath><clipPath id="1ed44aa90d"><path d="M 40.234375 102.769531 L 89.734375 102.769531 L 89.734375 152.269531 L 40.234375 152.269531 Z M 40.234375 102.769531 " clip-rule="nonzero"/></clipPath><clipPath id="e8afb178e3"><path d="M 74.675781 152.386719 L 115.175781 152.386719 L 115.175781 192.886719 L 74.675781 192.886719 Z M 74.675781 152.386719 " clip-rule="nonzero"/></clipPath><clipPath id="958b33962e"><path d="M 128.222656 172.6875 L 163.472656 172.6875 L 163.472656 207.9375 L 128.222656 207.9375 Z M 128.222656 172.6875 " clip-rule="nonzero"/></clipPath></defs><g clip-path="url(#699cc74c8b)"><path fill="#ffffff" d="M 0 0 L 262.5 0 L 262.5 270 L 0 270 Z M 0 0 " fill-opacity="1" fill-rule="nonzero"/><path fill="#ffffff" d="M 0 0 L 262.5 0 L 262.5 262.5 L 0 262.5 Z M 0 0 " fill-opacity="1" fill-rule="nonzero"/><path fill="#ffffff" d="M 0 0 L 262.5 0 L 262.5 262.5 L 0 262.5 Z M 0 0 " fill-opacity="1" fill-rule="nonzero"/></g><g clip-path="url(#efba2e7f37)"><g clip-path="url(#e481b28372)"><g clip-path="url(#14e68ddaf1)"><path fill="#ffa53b" d="M 103.59375 94.4375 C 104.261719 87.644531 107.066406 80.667969 114.761719 80.226562 C 117.015625 80.09375 119.105469 80.964844 120.785156 82.449219 C 125.039062 86.195312 126.621094 91.890625 129.800781 96.433594 C 131.613281 99.019531 133.921875 101.261719 136.628906 102.914062 C 141.539062 105.910156 146.777344 105.757812 152.242188 106.710938 C 159.738281 108.019531 167.183594 113.003906 168.3125 121.148438 C 171 140.664062 138.734375 137.988281 127.609375 133.839844 C 111.808594 127.957031 101.941406 111.210938 103.59375 94.4375 Z M 36.117188 148.628906 C 51.613281 198.152344 94.726562 232.433594 131.859375 223.113281 C 166.160156 214.625 192.730469 181.320312 203.304688 148.832031 C 205.253906 142.835938 206.320312 136.421875 206.066406 130.3125 C 205.601562 119.125 200.71875 108.933594 188.765625 104.085938 C 183.1875 101.8125 176.832031 100.347656 170.859375 99.613281 C 165.015625 98.894531 157.417969 98.421875 152.042969 95.925781 C 147.261719 93.695312 143.359375 90.574219 141.1875 85.691406 C 137.46875 77.332031 134.976562 70.164062 126.558594 65.566406 C 108.964844 55.972656 84.847656 60.191406 68.113281 69.4375 C 51.234375 78.765625 36.601562 93.304688 33.289062 112.992188 C 31.375 124.304688 32.691406 137.679688 36.117188 148.628906 " fill-opacity="1" fill-rule="nonzero"/></g></g></g><g clip-path="url(#ce698379d2)"><g clip-path="url(#cd50e983c3)"><g clip-path="url(#095447e144)"><path fill="#309bae" d="M 142.113281 173.472656 C 143.265625 182.460938 151.472656 188.820312 160.449219 187.667969 C 169.433594 186.519531 175.773438 178.296875 174.625 169.3125 C 173.472656 160.324219 165.265625 153.972656 156.28125 155.121094 C 147.308594 156.269531 140.964844 164.488281 142.113281 173.472656 " fill-opacity="1" fill-rule="nonzero"/></g></g></g><g clip-path="url(#2820982b09)"><g clip-path="url(#b208def42e)"><g clip-path="url(#4ad8f1f44d)"><path fill="#ffeb5b" d="M 97.90625 192.007812 C 99.054688 200.992188 107.265625 207.347656 116.242188 206.199219 C 125.21875 205.046875 131.566406 196.832031 130.417969 187.84375 C 129.265625 178.851562 121.050781 172.5 112.074219 173.648438 C 103.097656 174.796875 96.753906 183.015625 97.90625 192.007812 " fill-opacity="1" fill-rule="nonzero"/></g></g></g><g clip-path="url(#6f3919c5c4)"><g clip-path="url(#ecc461d38d)"><g clip-path="url(#59a8888384)"><path fill="#a359a0" d="M 56.90625 162.101562 C 58.054688 171.085938 66.265625 177.4375 75.242188 176.289062 C 84.21875 175.140625 90.5625 166.925781 89.410156 157.9375 C 88.261719 148.953125 80.050781 142.59375 71.074219 143.742188 C 62.097656 144.890625 55.753906 153.113281 56.90625 162.101562 " fill-opacity="1" fill-rule="nonzero"/></g></g></g><g clip-path="url(#e7c30df108)"><g clip-path="url(#12866e33a7)"><g clip-path="url(#ba6f6cef52)"><path fill="#f95e4e" d="M 50.625 113.054688 C 51.777344 122.039062 59.984375 128.394531 68.960938 127.242188 C 77.9375 126.09375 84.28125 117.878906 83.132812 108.890625 C 81.980469 99.90625 73.769531 93.554688 64.796875 94.703125 C 55.820312 95.851562 49.476562 104.066406 50.625 113.054688 " fill-opacity="1" fill-rule="nonzero"/></g></g></g><g clip-path="url(#41d193a36d)"><g clip-path="url(#79ca9dc84d)"><g clip-path="url(#75f55c7a4f)"><g clip-path="url(#a56da2250b)"><path fill="#ffffff" d="M 158.507812 58.097656 C 157.421875 64.253906 151.828125 66.09375 151.828125 66.09375 C 151.828125 66.09375 157.390625 68.019531 158.382812 74.195312 C 159.46875 68.035156 165.0625 66.199219 165.0625 66.199219 C 165.0625 66.199219 159.5 64.273438 158.507812 58.097656 Z M 158.507812 58.097656 " fill-opacity="1" fill-rule="nonzero"/></g></g></g></g><g clip-path="url(#4d0b1ddf2f)"><g clip-path="url(#f4001bf3ea)"><g clip-path="url(#edff60a0ae)"><g clip-path="url(#c6835f5afa)"><path fill="#ffffff" d="M 41.839844 195.164062 C 40.828125 200.890625 35.617188 202.601562 35.617188 202.601562 C 35.617188 202.601562 40.800781 204.390625 41.722656 210.132812 C 42.734375 204.40625 47.945312 202.695312 47.945312 202.695312 C 47.945312 202.695312 42.761719 200.90625 41.839844 195.164062 Z M 41.839844 195.164062 " fill-opacity="1" fill-rule="nonzero"/></g></g></g></g><g clip-path="url(#db9cc11fcb)"><g clip-path="url(#c3a9da6b03)"><g clip-path="url(#0f0f3d9953)"><g clip-path="url(#70b1f04613)"><path fill="#ffffff" d="M 183.636719 45.378906 C 182.179688 53.632812 174.675781 56.097656 174.675781 56.097656 C 174.675781 56.097656 182.140625 58.675781 183.46875 66.953125 C 184.925781 58.699219 192.429688 56.234375 192.429688 56.234375 C 192.429688 56.234375 184.964844 53.652344 183.636719 45.378906 Z M 183.636719 45.378906 " fill-opacity="1" fill-rule="nonzero"/></g></g></g></g><g clip-path="url(#6500399a73)"><g clip-path="url(#7997789591)"><g clip-path="url(#395f820425)"><path fill="#7bdfc6" d="M 237.753906 38.433594 C 237.953125 36.917969 237.742188 35.324219 237.1875 33.828125 C 235.738281 33.164062 234.160156 32.835938 232.636719 32.925781 C 219.675781 33.78125 207.824219 46.28125 198.878906 54.449219 C 190.210938 62.363281 182.007812 70.769531 173.679688 79.027344 C 171.253906 81.421875 168.777344 83.785156 166.3125 86.136719 C 165.917969 86.523438 165.523438 86.890625 165.128906 87.277344 C 160.859375 91.34375 156.597656 95.421875 152.613281 99.75 C 152.054688 100.328125 151.519531 100.925781 150.984375 101.527344 C 150.585938 101.957031 150.1875 102.40625 149.792969 102.855469 C 149.675781 102.984375 149.554688 103.136719 149.425781 103.273438 C 146.742188 106.371094 142.160156 111.835938 142.550781 116.34375 C 142.644531 117.703125 143.207031 118.972656 144.355469 120.078125 C 145.375 121.304688 146.597656 121.960938 147.949219 122.152344 C 152.414062 122.871094 158.199219 118.703125 161.488281 116.253906 C 161.636719 116.136719 161.792969 116.027344 161.929688 115.921875 C 162.886719 115.195312 163.851562 114.457031 164.785156 113.710938 C 165.167969 113.417969 165.542969 113.113281 165.914062 112.804688 C 170.300781 109.25 174.511719 105.460938 178.710938 101.660156 C 179.1875 101.234375 179.648438 100.808594 180.125 100.382812 C 182.558594 98.1875 184.988281 95.988281 187.445312 93.847656 C 196.304688 86.160156 205.28125 78.582031 213.808594 70.519531 C 222.621094 62.210938 235.960938 51.304688 237.753906 38.433594 Z M 237.753906 38.433594 " fill-opacity="1" fill-rule="nonzero"/></g></g></g><g clip-path="url(#57a94311e9)"><g clip-path="url(#910468b6af)"><g clip-path="url(#172287ed6e)"><path fill="#50a892" d="M 180.128906 100.382812 C 180.078125 100.289062 180.019531 100.203125 179.972656 100.105469 C 176.601562 94.40625 172.074219 89.578125 166.363281 86.167969 C 166.355469 86.15625 166.324219 86.144531 166.316406 86.136719 C 165.917969 86.523438 165.523438 86.890625 165.128906 87.277344 C 160.859375 91.34375 156.601562 95.421875 152.613281 99.75 C 157.65625 102.976562 162.542969 107.570312 165.914062 112.804688 C 170.304688 109.25 174.511719 105.460938 178.710938 101.660156 C 179.1875 101.234375 179.648438 100.808594 180.128906 100.382812 Z M 180.128906 100.382812 " fill-opacity="1" fill-rule="nonzero"/></g></g></g><g clip-path="url(#e0ac345574)"><g clip-path="url(#f6c929bb44)"><g clip-path="url(#94abad06da)"><path fill="#f2f6fa" d="M 130.222656 115.628906 C 122.847656 121.175781 121.910156 131.609375 115.136719 137.695312 C 113.382812 139.273438 111.636719 139.8125 109.335938 140.097656 C 108.3125 140.226562 104.734375 140.402344 104.457031 141.839844 C 104.253906 142.882812 106.082031 143.742188 106.785156 144.210938 C 115.65625 150.148438 129.003906 153.445312 138.929688 148.71875 C 141.722656 147.386719 144.613281 144.988281 146.433594 142.476562 C 151.292969 135.792969 155.1875 125.058594 150.152344 117.308594 C 146.566406 111.792969 140.597656 111.375 134.964844 113.191406 C 133.121094 113.785156 131.566406 114.617188 130.222656 115.628906 Z M 130.222656 115.628906 " fill-opacity="1" fill-rule="nonzero"/></g></g></g><g clip-path="url(#31aaa08a7f)"><path fill="#ffa53b" d="M 67.492188 93.683594 C 57.757812 93.683594 49.867188 101.574219 49.867188 111.308594 C 49.867188 121.042969 57.757812 128.933594 67.492188 128.933594 C 77.226562 128.933594 85.117188 121.042969 85.117188 111.308594 C 85.117188 101.574219 77.226562 93.683594 67.492188 93.683594 " fill-opacity="1" fill-rule="nonzero"/></g><g clip-path="url(#7b2055d99a)"><path fill="#ffa53b" d="M 72.105469 141.761719 C 62.371094 141.761719 54.480469 149.652344 54.480469 159.386719 C 54.480469 169.121094 62.371094 177.011719 72.105469 177.011719 C 81.839844 177.011719 89.730469 169.121094 89.730469 159.386719 C 89.730469 149.652344 81.839844 141.761719 72.105469 141.761719 " fill-opacity="1" fill-rule="nonzero"/></g><g clip-path="url(#e074b88cc0)"><path fill="#ffa53b" d="M 113.503906 172.6875 C 103.769531 172.6875 95.878906 180.578125 95.878906 190.3125 C 95.878906 200.046875 103.769531 207.9375 113.503906 207.9375 C 123.238281 207.9375 131.128906 200.046875 131.128906 190.3125 C 131.128906 180.578125 123.238281 172.6875 113.503906 172.6875 " fill-opacity="1" fill-rule="nonzero"/></g><g clip-path="url(#c780c46caf)"><path fill="#ffa53b" d="M 159.542969 151.972656 C 149.394531 151.972656 141.167969 160.199219 141.167969 170.347656 C 141.167969 180.496094 149.394531 188.722656 159.542969 188.722656 C 169.691406 188.722656 177.917969 180.496094 177.917969 170.347656 C 177.917969 160.199219 169.691406 151.972656 159.542969 151.972656 " fill-opacity="1" fill-rule="nonzero"/></g><g clip-path="url(#1ed44aa90d)"><path fill="#9356dc" d="M 64.984375 102.769531 C 51.316406 102.769531 40.234375 113.851562 40.234375 127.519531 C 40.234375 141.1875 51.316406 152.269531 64.984375 152.269531 C 78.652344 152.269531 89.734375 141.1875 89.734375 127.519531 C 89.734375 113.851562 78.652344 102.769531 64.984375 102.769531 " fill-opacity="1" fill-rule="nonzero"/></g><g clip-path="url(#e8afb178e3)"><path fill="#ff79da" d="M 94.925781 152.386719 C 83.742188 152.386719 74.675781 161.453125 74.675781 172.636719 C 74.675781 183.820312 83.742188 192.886719 94.925781 192.886719 C 106.109375 192.886719 115.175781 183.820312 115.175781 172.636719 C 115.175781 161.453125 106.109375 152.386719 94.925781 152.386719 " fill-opacity="1" fill-rule="nonzero"/></g><g clip-path="url(#958b33962e)"><path fill="#99e2d0" d="M 145.847656 172.6875 C 136.113281 172.6875 128.222656 180.578125 128.222656 190.3125 C 128.222656 200.046875 136.113281 207.9375 145.847656 207.9375 C 155.582031 207.9375 163.472656 200.046875 163.472656 190.3125 C 163.472656 180.578125 155.582031 172.6875 145.847656 172.6875 " fill-opacity="1" fill-rule="nonzero"/></g></svg>